<?xml version="1.0" encoding="UTF-8"?><svg id="Layer_1" xmlns="http://www.w3.org/2000/svg" viewBox="0 0 40 40"><path d="M22.27,5.07c-1.13,2.19-3.68,4.66-7.06,6.62-3.38,1.95-6.79,2.92-9.25,2.81-1.36-.06-2.97-.52-3.44-1.96-.36-1.11,.07-2.55,1.1-4.06,.16-.24,.34-.47,.51-.7,1.55-2.02,3.51-3.78,5.86-5.13C12.34,1.28,14.85,.46,17.37,.12c.29-.04,.58-.07,.86-.1,1.82-.13,3.28,.21,4.06,1.08,1.03,1.12,.61,2.76-.02,3.96Zm14.38,3.83c-.27-.41-.56-.81-.85-1.19-1.76-2.29-3.96-4.1-6.4-5.4,.68,.45,1.23,1.01,1.62,1.7,.2,.35,.35,.71,.46,1.1,.42,1.47,.18,3.18-.6,4.98-1.57,3.62-5.36,7.57-10.51,10.55-5.15,2.98-10.47,4.28-14.39,3.84-1.95-.22-3.54-.87-4.6-1.97-.28-.29-.52-.6-.72-.95-.4-.69-.61-1.47-.66-2.3-.1,2.8,.38,5.65,1.5,8.35,.17,.4,.35,.81,.54,1.2,0,.02,.02,.03,.03,.05,.72,1.26,1.8,2.24,3.13,2.96,4.7,2.52,12.66,1.66,20.09-2.65,7.43-4.3,12.16-10.76,12.33-16.1,.05-1.51-.26-2.93-.98-4.18Zm-8.05,26c-6.79,3.93-14.15,4.63-18.86,2.27,6.02,3.59,13.75,3.91,20.25,.15,6.5-3.76,10.1-10.62,10-17.64-.32,5.26-4.61,11.29-11.4,15.22Z" style="fill:#636f7b;"/></svg>