<?xml version="1.0" encoding="UTF-8"?><svg id="Layer_1" xmlns="http://www.w3.org/2000/svg" viewBox="0 0 646.3 230.06"><path d="M2.8,195.85L103.84,23.45c7.8-13.3,27.03-13.3,34.82,0l101.04,172.4c7.88,13.45-1.82,30.39-17.41,30.39H20.21c-15.6,0-25.3-16.94-17.41-30.39Z" style="fill:#636f7b;"/><path d="M331,.02c-45.88-.77-85.73,25.34-104.88,63.61-5.08,10.15-4.65,22.19,1.09,31.98l73.24,124.96c2.66,4.54,7.24,7.61,12.44,8.35,5.27,.75,10.66,1.14,16.14,1.14,63.36,0,114.76-51.23,115.03-114.53C444.34,52.93,393.61,1.07,331,.02Z" style="fill:#636f7b;"/><path d="M620.82,3.84h-156.13c-9.86,0-15.55,11.15-9.8,19.16,18.8,26.2,29.84,58.28,29.69,92.73-.15,33.97-11.07,65.46-29.5,91.25-5.77,8.06-.13,19.26,9.78,19.26h155.96c14.07,0,25.48-11.41,25.48-25.48V29.32c0-14.07-11.41-25.48-25.48-25.48Z" style="fill:#636f7b;"/></svg>