<?xml version="1.0" encoding="UTF-8"?><svg id="Layer_1" xmlns="http://www.w3.org/2000/svg" viewBox="0 0 54 53.9"><g id="Page-1"><g id="megafon-logo-green"><g id="Group"><path id="Shape" d="M30.3,.1V27.9h0c0,1.3-1,2.2-2.2,2.2h-3.3c-.2,0-.3,.2-.3,.3v23.3c.8,0,1.6,.2,2.5,.2,14.9,0,27-12.1,27-27C54,13.2,43.7,1.7,30.3,.1Zm-.6,41.6c-1.9,0-3.3-1.6-3.3-3.3,0-1.9,1.6-3.3,3.3-3.3,1.9,0,3.3,1.6,3.3,3.3,.2,1.8-1.4,3.3-3.3,3.3Zm7.9,0c-1.9,0-3.3-1.6-3.3-3.3,0-1.9,1.6-3.3,3.3-3.3,1.9,0,3.3,1.6,3.3,3.3s-1.3,3.3-3.3,3.3Zm8,0c-1.9,0-3.3-1.6-3.3-3.3,0-1.9,1.6-3.3,3.3-3.3,1.9,0,3.3,1.6,3.3,3.3s-1.4,3.3-3.3,3.3Z" style="fill:#636f7b;"/><path id="Shape-2" d="M27,0C12.1,0,0,12.1,0,27c0,13.1,9.1,23.8,21.3,26.3V29h0c0-1.1,1-2,2-2.2h3.3c.2,0,.3-.2,.3-.3l.1-26.5h0Zm-5.2,22.2c-1.9,0-3.3-1.6-3.3-3.3,0-1.9,1.6-3.3,3.3-3.3,1.9,0,3.3,1.6,3.3,3.3s-1.5,3.3-3.3,3.3Z" style="fill:#636f7b;"/></g></g></g></svg>