<svg width="34" height="34" viewBox="0 0 34 34" fill="none" xmlns="http://www.w3.org/2000/svg">
<path d="M33.3855 0.310547H0V33.6211H33.3855V0.310547Z" fill="#636F7B"/>
<path d="M22.2422 2.84985V4.40372H25.598V10.5842H27.4768V4.40372H30.8325V2.84985H22.2422Z" fill="white"/>
<path d="M10.1585 2.87305L7.70408 7.95738L5.24969 2.87305H2.57031V10.5608H4.44909V5.05954L6.84796 9.70804H8.56019L10.9591 5.05954V10.5608H12.8378V2.87305H10.157H10.1585Z" fill="white"/>
<path d="M28.9484 28.496C28.9134 28.7803 28.7833 29.0441 28.5803 29.2453C28.3684 29.4377 28.1098 29.5674 27.8293 29.6228C27.4203 29.703 27.0039 29.7409 26.5861 29.735C26.1419 29.7423 25.6993 29.6782 25.2756 29.5441C24.9279 29.4318 24.6299 29.2059 24.4253 28.9042C24.2208 28.601 24.12 28.1651 24.12 27.6098V26.8226C24.12 26.2629 24.2237 25.827 24.4253 25.5238C24.6284 25.2221 24.9264 24.9976 25.2741 24.8854C25.6978 24.7513 26.1405 24.6857 26.5846 24.6944C27.0024 24.6886 27.4188 24.7265 27.8279 24.8067C28.1084 24.8621 28.367 24.9932 28.5788 25.1842C28.7819 25.3854 28.9119 25.6492 28.947 25.9334H30.8272C30.7936 25.3416 30.5671 24.7775 30.1829 24.3256C29.8045 23.9102 29.3137 23.6114 28.7702 23.4656C28.0572 23.2776 27.3224 23.1901 26.5846 23.2047C25.6832 23.2047 24.9031 23.3344 24.2632 23.5895C23.6306 23.8329 23.1003 24.2848 22.7613 24.8708C22.4297 25.4378 22.2558 26.1958 22.2441 27.1243V27.2089L22.3449 27.2133H22.2441V27.2978C22.2558 28.2263 22.4297 28.9843 22.7613 29.5514C23.1003 30.1373 23.6306 30.5892 24.2632 30.8326C24.9031 31.0877 25.6861 31.2175 26.5846 31.2175C27.3209 31.232 28.0572 31.1446 28.7702 30.9566C29.3137 30.8108 29.8045 30.512 30.1829 30.0965C30.5671 29.6447 30.7936 29.0805 30.8272 28.4887L28.9499 28.4931L28.9484 28.496Z" fill="white"/>
</svg>