<svg width="280" height="105" viewBox="0 0 280 105" fill="none" xmlns="http://www.w3.org/2000/svg">
<g clip-path="url(#clip0_2249_211)">
<path fill-rule="evenodd" clip-rule="evenodd" d="M243.721 0.42394C254.257 -1.08253 263.892 1.45085 270.458 7.62609C276.464 13.2746 279.493 21.2747 278.769 29.5765C277.399 45.2681 269.745 57.8407 248.433 78.5549L213.555 79.6938C213.555 79.6938 237.85 57.7405 246.988 47.0144C252.909 40.0638 255.417 32.5609 252.985 27.56C251.444 24.3908 247.984 22.8136 243.721 23.0494V0.42394ZM172.249 12.8653V33.264L202.543 29.9494V8.62991L172.249 12.8653ZM147.578 105V16.315L168.365 13.4082V105H147.578ZM65.4661 27.8216V44.9696L88.3638 42.4647V24.621L65.4661 27.8216ZM46.6547 105V30.4525L62.5115 28.2355V105H46.6547ZM0 36.9751V52.1341L41.1044 47.6353V31.2293L0 36.9751ZM13.1154 53.0557V105H28.1652V51.5276L13.1154 53.0557ZM65.4661 75.1967V57.7333L80.4981 56.4479V74.3801L65.4661 75.1967ZM65.466 87.7808V105H88.3636V87.0939L65.466 87.7808ZM172.249 69.3845V48.6074L192.106 46.9142V68.3055L172.249 69.3845ZM172.249 84.5703V105H202.542V83.6613L172.249 84.5703ZM94.4216 105V23.7733L112.484 21.2478V105H94.4216ZM115.855 86.2684V105H142.076V85.4813L115.855 86.2684ZM280 105V81.3233L209.252 83.0742V105H280ZM210.174 44.873C209.01 20.3283 219.102 5.28424 239.654 0.931894L239.666 23.975C235.353 25.7832 231.09 29.0723 232.088 42.939L210.174 44.873Z" fill="#636F7B"/>
</g>
<defs>
<clipPath id="clip0_2249_211">
<rect width="280" height="105" fill="white"/>
</clipPath>
</defs>
</svg>
