<svg width="499" height="164" viewBox="0 0 499 164" fill="none" xmlns="http://www.w3.org/2000/svg">
<path fill-rule="evenodd" clip-rule="evenodd" d="M46.0118 66.6326C45.567 66.5662 45.1183 66.5319 44.6689 66.5299C43.8846 66.4948 43.1015 66.6218 42.3665 66.9032C41.6316 67.1846 40.9599 67.6146 40.3917 68.1674C38.8004 69.7981 38.4714 72.1619 38.4781 73.8612C38.4781 78.2394 41.2243 80.9595 45.6089 80.9595H46.0453C48.0597 80.8773 49.6309 79.5892 50.7455 77.1157C51.3978 75.312 51.4823 73.3455 50.9872 71.4905C50.2889 68.8252 48.3753 66.9684 46.0118 66.6326Z" fill="#636F7B"/>
<path fill-rule="evenodd" clip-rule="evenodd" d="M182.168 93.4159L182.597 93.3406C184.558 92.9774 185.955 91.4769 186.76 88.8664C187.153 86.987 186.968 85.0296 186.23 83.2617C185.162 80.7266 183.014 79.1507 180.63 79.1507C180.181 79.1546 179.732 79.1866 179.287 79.2466C178.503 79.3228 177.742 79.56 177.049 79.9438C176.357 80.3276 175.748 80.8503 175.258 81.4803C173.916 83.3165 173.916 85.7078 174.144 87.3864C174.735 91.7304 177.823 94.0326 182.168 93.4159Z" fill="#636F7B"/>
<path fill-rule="evenodd" clip-rule="evenodd" d="M110.847 58.3284C110.523 58.3308 110.2 58.3536 109.88 58.3969C106.65 58.8628 104.448 60.3085 103.4 62.6587C102.568 64.8088 102.494 67.1876 103.192 69.387C104.575 74.4915 108.376 76.7937 113.096 75.4096C113.535 75.2815 113.968 75.1306 114.392 74.9574C116.682 73.9982 118.192 71.9153 118.75 68.9211C118.972 66.5968 118.454 64.2614 117.273 62.2613C116.627 61.0938 115.696 60.1175 114.569 59.428C113.443 58.7386 112.16 58.3597 110.847 58.3284V58.3284Z" fill="#636F7B"/>
<path fill-rule="evenodd" clip-rule="evenodd" d="M218.923 89.531C218.643 89.1513 218.237 88.8883 217.781 88.791C214.39 65.091 202.049 43.1656 182.792 26.7216C162.568 9.50329 136.462 0 109.302 0C84.2171 0 59.6153 8.22203 40.0963 23.1381C21.551 37.3006 8.37048 56.7594 2.77733 78.1435C2.32076 78.1384 1.86666 78.2125 1.43444 78.3627C0.830305 78.7261 0.374834 79.2995 0.151599 79.9779C-0.0716369 80.6563 -0.0476655 81.394 0.219116 82.0558C1.85073 85.0226 5.32211 83.7139 14.1651 85.7077C22.0143 87.4755 28.722 90.2572 35.7051 90.7985C39.7673 91.1274 41.0766 100.624 36.8264 111.059C33.966 118.068 32.6433 135.122 29.6956 141.487C26.0564 149.339 29.0242 149.147 30.8975 149.442C32.9335 149.736 34.9225 150.302 36.813 151.128C38.1559 151.765 39.4585 152.669 41.6742 151.669C42.856 151.134 44.0176 150.429 44.0444 149.442C44.0444 148.757 43.5677 148.599 42.8157 148.435C42.0637 148.27 38.9012 148.065 37.4441 146.804C37.0883 133.101 41.0296 124.303 44.548 118.383C46.7101 118.123 49.4429 117.698 51.8332 117.438C55.7209 126.277 60.0786 140.562 62.4891 154.177C62.845 156.232 64.3759 156.678 66.1418 156.376C68.1561 156.006 68.2165 154.601 72.8562 152.834C76.623 151.402 81.585 150.367 82.9749 148.757C83.27 148.439 83.4579 148.033 83.5112 147.599C83.5646 147.165 83.4806 146.724 83.2715 146.342C83.0625 145.959 82.7392 145.655 82.3489 145.473C81.9586 145.292 81.5216 145.242 81.1016 145.331C80.4107 145.437 79.7117 145.478 79.0134 145.454C78.6175 145.432 78.2208 145.432 77.8249 145.454C76.2806 145.544 76.0657 146.414 73.1248 147.544C72.0338 148.045 70.889 148.413 69.7138 148.64C62.4488 125.859 59.3669 115.883 57.7352 105.92C56.7415 99.8359 58.87 96.6567 58.1381 92.7924C57.7285 90.6341 58.8968 89.4899 60.1525 88.1606C64.1051 83.8849 67.8453 79.4097 71.3589 74.7519C73.0679 72.5718 74.6164 70.2656 75.9919 67.8522C75.9919 67.8522 78.3285 70.5929 81.2359 73.9091C84.3245 77.4652 88.0309 81.5556 91.979 84.7074C95.061 87.1397 97.3506 88.1332 98.3175 91.4494L98.6465 95.4851C99.2567 102.842 99.3195 110.236 98.8345 117.602C98.0758 123.639 94.4499 138.294 90.9517 145.831C86.7552 154.875 90.1661 154.656 92.3282 154.999C94.6739 155.335 96.9656 155.987 99.1434 156.938C100.694 157.664 102.178 158.706 104.737 157.555C106.079 156.945 107.422 156.123 107.463 154.992C107.463 154.225 106.919 154.026 106.046 153.841C105.173 153.656 101.547 153.409 99.9021 151.957C99.4925 136.198 104.293 125.92 109.403 119.487C114.352 119.11 118.259 118.185 123.315 117.965C127.554 131.888 130.896 146.078 133.32 160.446C133.393 161.209 133.758 161.911 134.334 162.402C134.911 162.893 135.653 163.133 136.402 163.07H136.469C136.822 163.062 137.175 163.027 137.523 162.967C139.873 162.549 139.914 160.912 145.278 158.891C149.609 157.253 155.317 156.054 156.921 154.204C158.526 152.354 157.035 149.977 154.766 150.251C153.972 150.366 153.17 150.412 152.369 150.388C152.02 150.388 151.65 150.388 150.992 150.388C149.22 150.504 148.978 151.498 145.581 152.806C144.323 153.378 143.005 153.801 141.653 154.067C135.972 137.863 128.566 96.1223 127.881 90.9082L127.405 88.0647C131.212 86.6944 135.616 86.4888 143.392 84.8718C147.406 84.0684 151.368 83.0159 155.256 81.72C157.187 85.8037 159.392 89.746 161.856 93.5187C164.475 97.6297 170.015 101.227 170.203 105.578C170.283 107.078 170.323 108.517 170.357 110.018C170.451 114.026 171.237 118.185 170.605 124.406C170.135 127.62 168.96 131.593 167.92 135.41C167.211 138.367 166.271 141.261 165.106 144.064C163.723 147.044 163.347 148.921 163.911 149.99C164.374 150.854 165.314 150.984 166.066 151.08L166.375 151.128C167.994 151.374 169.574 151.834 171.075 152.498L171.451 152.676C172.128 153.081 172.89 153.316 173.674 153.361C174.259 153.348 174.834 153.213 175.366 152.964C176.353 152.512 177.494 151.861 177.528 150.792C177.528 149.867 176.716 149.682 176.219 149.579L175.695 149.497C174.829 149.374 173.076 149.134 172.156 148.435C171.948 139.329 174.171 131.772 178.716 125.955C179.858 125.824 180.905 125.674 181.913 125.53C183.963 125.19 186.033 124.984 188.11 124.913C191.079 134.684 193.419 144.642 195.113 154.725C195.409 156.39 196.658 157.157 198.538 156.828C199.246 156.69 199.908 156.366 200.458 155.89C201.569 155.045 202.801 154.379 204.111 153.916C205.051 153.567 206.125 153.231 207.112 152.916C209.462 152.169 211.671 151.47 212.531 150.484C212.801 150.19 212.981 149.822 213.047 149.424C213.114 149.027 213.065 148.619 212.907 148.25C212.714 147.827 212.392 147.479 211.988 147.259C211.585 147.039 211.123 146.959 210.671 147.03C210.127 147.119 209.576 147.151 209.026 147.126C208.688 147.103 208.349 147.103 208.012 147.126C207.376 147.175 206.765 147.4 206.246 147.777C205.554 148.213 204.821 148.576 204.057 148.86L203.56 149.058C202.946 149.325 202.31 149.536 201.66 149.689C197.671 138.281 192.018 108.777 192.401 101.569C197.819 100.624 205.158 97.6434 207.918 96.643C210.112 95.8481 212.355 95.2027 214.632 94.7109C215.692 94.5465 216.726 94.24 217.707 93.7996C218.323 93.4874 218.821 92.9769 219.124 92.347C219.346 91.9079 219.448 91.4156 219.419 90.9223C219.389 90.4289 219.229 89.9529 218.956 89.5447L218.923 89.531ZM177.112 97.2528H176.44C176.44 97.2528 169.35 93.1418 166.55 89.3117C162.937 84.3511 163.065 83.5495 161.601 80.2058C160.258 77.0952 158.822 75.2315 155.458 75.3069C152.094 75.3822 149.656 76.4443 146.937 76.9718C143.184 77.705 140.222 78.0407 135.032 78.5683C128.183 79.2535 124.826 79.1644 120.361 79.6371C115.294 80.2415 110.187 80.4157 105.092 80.1579C102.689 79.9523 100.265 79.4179 95.2758 76.4648C90.5757 73.6556 87.7556 70.497 83.2569 65.5021C79.9668 61.8296 77.8854 59.966 75.6562 60.0619C73.427 60.1578 71.8423 60.4182 69.8884 63.7618C67.2765 68.2154 64.8257 72.3538 62.1869 74.978C57.7822 79.3425 54.1833 81.8297 52.3502 82.5834C42.9097 86.619 35.6514 84.1456 28.2319 83.0356C36.5242 49.017 69.734 25.3512 109.396 25.3512C153.04 25.3512 189.298 56.1838 192.441 95.7592C187.388 96.7474 182.256 97.2475 177.112 97.2528V97.2528ZM196.96 94.8136C193.347 53.1143 155.263 20.6921 109.396 20.6921C67.5719 20.6921 32.509 45.8515 23.7466 82.001C22.115 81.6036 20.0671 81.1171 17.8647 80.6306C27.8693 42.4804 65.9605 15.0737 109.356 15.0737C157.371 15.0737 198.162 49.2362 202.915 93.1144C200.834 93.7516 198.813 94.3546 196.96 94.8136ZM207.36 91.6344C204.762 69.8598 193.77 49.709 176.225 34.6764C157.935 18.9997 134.193 10.3666 109.356 10.3666C86.6276 10.3666 64.4699 17.554 46.9787 30.5996C30.1925 43.0971 18.3549 60.4524 13.4063 79.6577C11.3316 79.2329 9.28364 78.8561 7.46402 78.5888C19.0666 35.6288 61.3812 4.72081 109.316 4.72081C161.44 4.72081 206.595 41.8775 213.289 89.7571C211.396 90.3189 209.388 90.9698 207.36 91.6344V91.6344Z" fill="#636F7B"/>
<path fill-rule="evenodd" clip-rule="evenodd" d="M260.794 113.334C260.101 113.323 259.414 113.466 258.781 113.753C258.148 114.041 257.584 114.466 257.128 114.999C257.119 114.437 257.047 113.878 256.913 113.334L254.167 113.834C254.379 114.985 254.469 116.157 254.436 117.328V133.683L257.323 132.923V128.812C257.323 128.291 257.323 127.537 257.242 126.9C258.159 127.65 259.297 128.063 260.472 128.072C261.12 128.092 261.766 127.981 262.372 127.746C262.978 127.511 263.532 127.156 264.004 126.701C265.118 125.591 266.018 123.598 266.018 120.535C266.018 117.349 265.091 115.629 264.172 114.684C263.727 114.238 263.198 113.889 262.618 113.657C262.038 113.425 261.417 113.315 260.794 113.334V113.334ZM261.58 124.92C261.379 125.118 261.141 125.272 260.88 125.373C260.619 125.474 260.341 125.52 260.062 125.509C259.023 125.469 258.038 125.019 257.316 124.255V117.356C257.688 116.922 258.142 116.571 258.651 116.322C259.16 116.074 259.713 115.934 260.277 115.91C260.565 115.895 260.853 115.945 261.12 116.056C261.387 116.167 261.626 116.337 261.822 116.554C262.614 117.383 262.775 118.904 262.775 120.706C262.775 121.789 262.775 123.81 261.58 124.92V124.92Z" fill="#636F7B"/>
<path fill-rule="evenodd" clip-rule="evenodd" d="M288.605 120.288C289.113 120.142 289.575 119.866 289.948 119.487C290.257 119.189 290.5 118.828 290.663 118.428C290.826 118.028 290.905 117.597 290.895 117.164C290.907 116.677 290.819 116.193 290.637 115.744C290.454 115.294 290.18 114.888 289.834 114.553C288.772 113.674 287.427 113.23 286.061 113.306C285.089 113.282 284.121 113.442 283.207 113.779C282.531 114.035 281.89 114.378 281.3 114.8L282.502 116.718C282.893 116.437 283.308 116.194 283.744 115.992C284.308 115.769 284.906 115.648 285.51 115.636C286.149 115.604 286.777 115.811 287.276 116.218C287.581 116.548 287.752 116.984 287.752 117.438C287.752 117.892 287.581 118.328 287.276 118.657C286.778 119.066 286.147 119.265 285.51 119.212H283.912V121.542H285.376C286.096 121.503 286.807 121.718 287.39 122.152C287.58 122.342 287.729 122.571 287.827 122.824C287.925 123.076 287.971 123.347 287.961 123.618C287.954 124.191 287.73 124.738 287.336 125.146C286.82 125.564 286.168 125.769 285.51 125.722C284.813 125.725 284.124 125.566 283.496 125.256C283.008 125.015 282.556 124.706 282.153 124.338L280.844 126.304C281.238 126.635 281.658 126.933 282.099 127.195C283.249 127.82 284.544 128.118 285.846 128.058C287.367 128.148 288.863 127.64 290.029 126.64C290.42 126.244 290.729 125.774 290.939 125.255C291.149 124.736 291.255 124.179 291.251 123.618C291.262 123.182 291.186 122.749 291.027 122.343C290.869 121.938 290.632 121.57 290.331 121.261C289.847 120.792 289.253 120.457 288.605 120.288V120.288Z" fill="#636F7B"/>
<path fill-rule="evenodd" clip-rule="evenodd" d="M475.026 113.334C471.387 113.334 469.023 116.218 469.023 120.706C469.023 125.194 471.36 128.085 475.066 128.085C478.773 128.085 481.15 125.283 481.15 120.74C481.15 116.198 478.934 113.334 475.026 113.334ZM475.106 125.811C473.341 125.811 472.333 124.618 472.333 120.487C472.333 117.061 473.153 115.609 475.019 115.609C476.758 115.609 477.839 116.801 477.839 120.761C477.846 124.338 476.886 125.811 475.106 125.811Z" fill="#636F7B"/>
<path fill-rule="evenodd" clip-rule="evenodd" d="M359.316 113.334C358.519 113.3 357.725 113.453 356.994 113.779C356.263 114.106 355.615 114.598 355.099 115.218C353.904 116.588 353.393 118.24 353.393 120.699C353.393 125.221 355.837 128.079 359.718 128.079C361.535 128.094 363.295 127.431 364.667 126.215L363.499 124.358C362.566 125.237 361.344 125.727 360.074 125.728C357.389 125.728 356.677 123.673 356.677 121.741V121.494H364.882V120.85C364.882 117.582 364.284 115.862 363.089 114.759C362.064 113.797 360.708 113.285 359.316 113.334V113.334ZM356.697 119.219C356.697 116.945 357.624 115.588 359.309 115.588C360.799 115.588 361.78 116.958 361.78 119.219H356.697Z" fill="#636F7B"/>
<path fill-rule="evenodd" clip-rule="evenodd" d="M489.375 112.203C490.32 112.256 491.256 111.992 492.04 111.452C492.825 110.911 493.414 110.123 493.719 109.209L492.222 108.346C492.046 108.606 491.855 108.855 491.651 109.093C491.371 109.406 491.027 109.65 490.642 109.809C490.257 109.968 489.843 110.037 489.428 110.011C488.997 110.041 488.564 109.974 488.161 109.815C487.757 109.657 487.392 109.41 487.092 109.093C486.887 108.855 486.697 108.606 486.521 108.346L485.024 109.209C485.329 110.125 485.919 110.913 486.705 111.454C487.491 111.994 488.428 112.258 489.375 112.203V112.203Z" fill="#636F7B"/>
<path fill-rule="evenodd" clip-rule="evenodd" d="M401.986 123.125L402.046 119.103C402.046 117.047 402.046 116.273 401.825 115.677C401.227 114.156 399.81 113.347 397.635 113.347C395.543 113.368 393.507 114.034 391.793 115.259L393.136 117.452C393.136 117.452 395.258 115.841 397.239 115.841C398.87 115.841 399.146 116.698 399.146 118.308V119.062H398.212C393.814 119.062 391.424 120.692 391.424 123.94C391.424 126.372 392.841 128.099 395.99 128.099C396.702 128.138 397.414 128.007 398.068 127.719C398.723 127.43 399.303 126.99 399.763 126.434C399.93 126.865 400.184 127.255 400.507 127.58C400.831 127.904 401.218 128.156 401.644 128.318L403.188 126.372C402.12 125.612 401.959 125.009 401.986 123.125ZM398.998 124.454C398.728 124.875 398.363 125.224 397.932 125.469C397.502 125.715 397.02 125.851 396.527 125.865C395.332 125.865 394.627 125.091 394.627 123.755C394.627 121.981 395.52 121.097 398.508 121.097C398.729 121.097 399.052 121.097 399.052 121.097L398.998 124.454Z" fill="#636F7B"/>
<path fill-rule="evenodd" clip-rule="evenodd" d="M250.011 113.697H241.644L241.591 115.752C241.581 117.459 241.39 119.159 241.02 120.823C240.628 122.459 240.025 124.034 239.227 125.509H238.166V131.676H240.939V127.709H248.95V131.676H251.723V125.509H250.011V113.697ZM247.05 125.509H241.879C242.507 124.273 243 122.97 243.35 121.624C243.676 120.175 243.867 118.698 243.921 117.212L243.974 115.91H247.043L247.05 125.509Z" fill="#636F7B"/>
<path fill-rule="evenodd" clip-rule="evenodd" d="M299.476 118.877H297.495V113.361L294.534 113.943V127.722H299.718C301.376 127.722 302.813 127.469 303.794 126.448C304.533 125.604 304.915 124.495 304.855 123.365C304.88 122.794 304.795 122.225 304.603 121.689C304.412 121.152 304.119 120.66 303.74 120.24C302.464 118.904 300.591 118.877 299.476 118.877ZM301.162 124.947C300.614 125.405 299.912 125.624 299.208 125.557H297.495V121.042H299.12C299.844 120.975 300.564 121.193 301.135 121.652C301.335 121.881 301.488 122.149 301.586 122.439C301.684 122.73 301.725 123.037 301.705 123.344C301.736 123.93 301.541 124.506 301.162 124.947V124.947Z" fill="#636F7B"/>
<path fill-rule="evenodd" clip-rule="evenodd" d="M488.206 120.59C487.625 121.636 487.133 122.732 486.736 123.865H486.682C486.736 122.919 486.79 121.7 486.79 120.699V113.334L483.829 113.916V127.722H486.958L490.731 120.823C491.27 119.823 491.732 118.783 492.114 117.712H492.168C492.061 119.014 492.034 119.987 492.034 121.343V127.722H494.995V113.334L491.899 113.889L488.206 120.59Z" fill="#636F7B"/>
<path fill-rule="evenodd" clip-rule="evenodd" d="M274.7 121.275C274.378 122.385 273.995 123.769 273.693 125.043H273.646C273.451 124.077 273.122 122.659 272.907 121.919L270.382 113.382L267.341 113.902L270.597 123.741C270.899 124.687 271.269 125.735 271.766 127.709H272.719C272.482 128.751 271.988 129.713 271.282 130.504C270.657 131.133 269.862 131.558 268.999 131.724L269.973 133.697C271.416 133.361 272.363 133.012 273.236 132.114C274.107 131.132 274.747 129.96 275.109 128.688L280.192 113.717H276.983L274.7 121.275Z" fill="#636F7B"/>
<path fill-rule="evenodd" clip-rule="evenodd" d="M417.711 125.749C417.37 125.755 417.031 125.686 416.717 125.548C416.403 125.41 416.122 125.205 415.892 124.947C415.267 124.262 414.965 123.036 414.965 121.124C414.887 119.794 415.081 118.461 415.536 117.212C415.724 116.786 416.03 116.426 416.417 116.176C416.804 115.926 417.254 115.798 417.711 115.807C418.589 115.843 419.419 116.23 420.021 116.883L421.512 114.827C421.018 114.316 420.425 113.917 419.77 113.654C419.115 113.392 418.414 113.274 417.711 113.306C414.643 113.306 411.668 115.746 411.668 120.843C411.668 125.365 413.756 128.058 417.503 128.058C418.326 128.09 419.145 127.94 419.905 127.618C420.666 127.296 421.349 126.811 421.908 126.194L420.498 124.338C420.151 124.753 419.725 125.092 419.246 125.335C418.767 125.578 418.245 125.719 417.711 125.749V125.749Z" fill="#636F7B"/>
<path fill-rule="evenodd" clip-rule="evenodd" d="M336.399 120.288C336.915 120.118 337.378 119.814 337.742 119.404C338.003 119.113 338.205 118.772 338.335 118.4C338.465 118.028 338.522 117.633 338.501 117.239C338.518 116.793 338.448 116.349 338.295 115.931C338.142 115.513 337.908 115.131 337.608 114.807C336.574 113.752 335.023 113.697 334.049 113.697H328.342V127.722H334.479C335.747 127.801 336.999 127.395 337.99 126.585C338.364 126.207 338.656 125.753 338.846 125.252C339.037 124.752 339.123 124.216 339.098 123.68C339.119 123.229 339.049 122.779 338.89 122.358C338.732 121.937 338.489 121.554 338.178 121.234C337.688 120.749 337.07 120.42 336.399 120.288V120.288ZM331.316 115.752H333.331C333.924 115.683 334.521 115.839 335.009 116.191C335.185 116.369 335.322 116.583 335.411 116.82C335.5 117.056 335.539 117.308 335.526 117.561C335.541 117.801 335.504 118.042 335.42 118.267C335.335 118.491 335.204 118.695 335.036 118.863C334.516 119.268 333.869 119.465 333.216 119.418H331.316V115.752ZM335.446 125.119C334.874 125.523 334.186 125.719 333.492 125.674H331.316V121.426H333.492C334.117 121.376 334.742 121.522 335.284 121.843C335.527 122.069 335.715 122.349 335.831 122.663C335.948 122.976 335.991 123.312 335.956 123.645C335.984 123.914 335.953 124.186 335.865 124.441C335.776 124.696 335.633 124.928 335.446 125.119V125.119Z" fill="#636F7B"/>
<path fill-rule="evenodd" clip-rule="evenodd" d="M428.683 115.972H432.382V127.722H435.343V115.972H438.895L439.278 113.697H428.683V115.972Z" fill="#636F7B"/>
<path fill-rule="evenodd" clip-rule="evenodd" d="M376.592 113.697H368.004V127.722H370.965V115.972H376.236L376.592 113.697Z" fill="#636F7B"/>
<path fill-rule="evenodd" clip-rule="evenodd" d="M347.431 125.749C347.089 125.755 346.75 125.687 346.436 125.548C346.123 125.41 345.841 125.205 345.611 124.947C344.987 124.262 344.685 123.036 344.685 121.124C344.606 119.794 344.801 118.461 345.255 117.212C345.441 116.783 345.747 116.42 346.134 116.168C346.521 115.916 346.972 115.786 347.431 115.793C348.309 115.83 349.138 116.216 349.741 116.869L351.238 114.814C350.743 114.302 350.149 113.903 349.493 113.641C348.837 113.379 348.134 113.26 347.431 113.293C344.362 113.293 341.388 115.732 341.388 120.829C341.388 125.352 343.483 128.044 347.223 128.044C348.045 128.076 348.865 127.926 349.625 127.604C350.385 127.283 351.068 126.797 351.627 126.181L350.217 124.324C349.871 124.741 349.446 125.083 348.967 125.328C348.488 125.573 347.966 125.716 347.431 125.749V125.749Z" fill="#636F7B"/>
<path fill-rule="evenodd" clip-rule="evenodd" d="M387.946 113.697H379.573L379.519 115.752C379.513 117.459 379.322 119.159 378.949 120.823C378.562 122.459 377.961 124.036 377.163 125.509H376.102V131.676H378.855V127.709H386.912V131.676H389.678V125.509H387.973L387.946 113.697ZM384.978 125.509H379.821C380.447 124.272 380.937 122.97 381.285 121.624C381.612 120.175 381.803 118.698 381.856 117.212L381.91 115.91H384.978V125.509Z" fill="#636F7B"/>
<path fill-rule="evenodd" clip-rule="evenodd" d="M307.722 114.916C307.365 115.271 307.087 115.699 306.904 116.171C306.721 116.643 306.638 117.15 306.661 117.657C306.609 118.512 306.892 119.353 307.447 119.995C308.002 120.637 308.784 121.028 309.622 121.083V121.138C309.184 121.219 308.783 121.442 308.48 121.775C308.145 122.113 307.9 122.533 307.769 122.995L307.366 124.242C307.269 124.66 307.063 125.044 306.768 125.352C306.452 125.592 306.091 125.762 305.707 125.852L305.271 125.961L305.794 128.017L306.849 127.935C307.756 127.942 308.638 127.63 309.346 127.051C309.757 126.557 310.039 125.966 310.166 125.331L310.542 123.961C310.618 123.476 310.825 123.023 311.139 122.652C311.339 122.484 311.569 122.358 311.817 122.283C312.065 122.208 312.326 122.184 312.583 122.213H313.832V127.756H316.793V113.697H311.71C310.407 113.697 308.836 113.834 307.722 114.916ZM313.832 115.91V120.021H312.146C311.487 120.053 310.839 119.836 310.327 119.411C310.138 119.216 309.991 118.981 309.898 118.724C309.804 118.466 309.765 118.192 309.783 117.917C309.772 117.647 309.815 117.378 309.908 117.124C310.001 116.871 310.144 116.64 310.327 116.444C310.838 116.044 311.478 115.855 312.119 115.917L313.832 115.91Z" fill="#636F7B"/>
<path fill-rule="evenodd" clip-rule="evenodd" d="M445.69 113.334C442.051 113.334 439.681 116.218 439.681 120.706C439.681 125.194 442.024 128.085 445.724 128.085C449.424 128.085 451.807 125.283 451.807 120.74C451.807 116.198 449.605 113.334 445.69 113.334ZM445.771 125.811C444.005 125.811 443.005 124.618 443.005 120.487C443.005 117.061 443.817 115.609 445.69 115.609C447.429 115.609 448.517 116.801 448.517 120.761C448.517 124.338 447.537 125.811 445.771 125.811Z" fill="#636F7B"/>
<path fill-rule="evenodd" clip-rule="evenodd" d="M461.12 113.697C460.129 113.664 459.154 113.965 458.347 114.553C457.795 114.967 457.337 115.498 457.004 116.109H456.87L456.977 115.252C457.03 114.496 457.286 113.77 457.717 113.154C458.148 112.537 458.738 112.054 459.422 111.758L462.974 110.264C463.383 110.1 463.9 109.901 464.585 109.579C465.125 109.355 465.643 109.078 466.129 108.75L465.042 106.283L463.981 106.866L459.69 108.716C458.593 109.158 457.588 109.809 456.729 110.634C455.953 111.406 455.384 112.369 455.077 113.43C454.56 115.305 454.334 117.252 454.406 119.199C454.406 121.693 454.493 124.214 456.071 126.126C456.606 126.776 457.28 127.292 458.042 127.634C458.803 127.976 459.631 128.135 460.462 128.099C461.306 128.129 462.146 127.967 462.922 127.626C463.698 127.285 464.389 126.773 464.948 126.126C465.706 125.215 466.579 123.577 466.579 120.836C466.579 117.76 465.518 116.177 465.028 115.567C464.559 114.973 463.963 114.495 463.286 114.171C462.609 113.847 461.868 113.685 461.12 113.697ZM462.557 124.66C462.355 125.032 462.053 125.339 461.687 125.546C461.322 125.752 460.906 125.848 460.489 125.824C460.074 125.844 459.661 125.745 459.297 125.539C458.933 125.334 458.632 125.029 458.428 124.66C457.935 123.479 457.706 122.201 457.756 120.919C457.756 119.781 457.891 118.116 458.428 117.15C458.629 116.777 458.929 116.47 459.294 116.264C459.658 116.058 460.073 115.961 460.489 115.985C460.906 115.963 461.321 116.06 461.686 116.266C462.052 116.472 462.353 116.778 462.557 117.15C463.064 118.337 463.307 119.624 463.269 120.919C463.32 122.201 463.076 123.477 462.557 124.646V124.66Z" fill="#636F7B"/>
<path fill-rule="evenodd" clip-rule="evenodd" d="M498.48 45.6391C497.398 43.9536 494.847 43.3027 489.872 42.8984C484.896 42.4942 465.773 40.5551 452.774 43.5836C450.76 44.0564 450.592 46.475 451.008 47.5302C452.935 52.4565 462.054 48.9005 469.809 49.339C469.627 50.4216 468.956 52.0797 468.828 53.0252C468.825 53.0982 468.825 53.1714 468.828 53.2445C467.956 61.6241 467.868 72.3607 468.083 82.4258C468.083 82.4738 468.083 82.5286 468.083 82.5765C467.794 86.2764 467.499 89.7777 467.284 92.6485C466.713 100.343 475.919 98.6095 475.852 94.9712C475.765 89.7091 476.369 80.0483 477.047 70.867C477.718 62.1517 478.39 53.868 478.685 50.2297C484.527 48.3798 489.999 52.5113 495.189 50.9149C499.211 49.7227 499.185 46.7422 498.48 45.6391Z" fill="#636F7B"/>
<path fill-rule="evenodd" clip-rule="evenodd" d="M246.909 69.202C248.337 72.6781 251.139 77.1637 255.315 82.6587L255.188 82.8368L254.845 83.3165C252.079 91.1891 249.735 94.0736 245.378 94.0736H244.773C244.371 94.082 243.969 94.1186 243.572 94.1832C242.79 94.3056 242.084 94.729 241.6 95.3663C241.115 96.0036 240.888 96.8063 240.966 97.6091C240.944 98.1003 241.023 98.5908 241.197 99.0494C241.371 99.5079 241.637 99.9245 241.977 100.273C242.318 100.621 242.725 100.892 243.174 101.071C243.623 101.249 244.104 101.33 244.585 101.309C245.619 101.309 246.613 101.275 247.567 101.206L247.976 101.172C254.234 99.5892 258.122 96.595 261.09 86.8588C261.169 86.6387 261.261 86.4236 261.365 86.2147C262.385 83.8372 268.845 57.5952 268.872 57.5199C268.986 57.3075 272.115 47.2423 272.115 46.1187C272.124 45.6255 272.031 45.1359 271.841 44.6824C271.651 44.2288 271.369 43.8215 271.014 43.4876C270.666 43.142 270.256 42.8696 269.805 42.6862C269.355 42.5028 268.873 42.4119 268.388 42.4188C266.891 42.4188 265.763 43.2547 265.031 44.9333C263.339 48.4551 261.674 55.6425 261.62 55.7247C260.754 60.425 256.678 71.141 256.678 71.141C256.571 71.4014 254.603 68.6196 253.737 66.4545C252.516 63.5532 251.086 60.7478 249.46 58.0611C248.641 56.6566 247.499 52.7854 244.961 48.8936C243.681 46.8472 242.714 45.3193 242.061 44.3098C241.743 43.7948 241.306 43.3671 240.789 43.0637C240.271 42.7604 239.689 42.5907 239.093 42.5695C238.605 42.5683 238.123 42.6678 237.674 42.8621C237.225 43.0564 236.819 43.3415 236.481 43.7C236.126 44.0374 235.844 44.4458 235.651 44.8997C235.458 45.3536 235.359 45.8432 235.36 46.3379C235.376 47.0405 235.562 47.7281 235.904 48.3386C236.77 50.0173 238.24 54.464 241.383 59.2465C243.525 62.3819 245.375 65.7149 246.909 69.202V69.202Z" fill="#636F7B"/>
<path fill-rule="evenodd" clip-rule="evenodd" d="M333.196 76.6224C333.196 69.0855 334.432 59.4247 332.169 54.7381C329.168 48.647 323.796 44.7415 317.639 44.7415C316.089 44.8069 314.567 45.1858 313.162 45.8562C311.757 46.5267 310.497 47.4753 309.454 48.647C309.772 45.2942 309.931 43.8302 309.931 44.255C309.941 43.6507 309.834 43.0504 309.616 42.4884C309.398 41.9263 309.074 41.4137 308.662 40.9799C308.264 40.5371 307.779 40.1858 307.239 39.9495C306.698 39.7132 306.114 39.5973 305.526 39.6096C303.102 39.6096 302.39 42.0008 301.961 45.3239C301.919 45.6323 301.805 45.9258 301.628 46.1799C301.452 46.4341 301.219 46.6413 300.948 46.7843C300.677 46.9273 300.376 47.0018 300.071 47.0016C299.766 47.0015 299.465 46.9266 299.194 46.7833C297.086 45.7007 294.333 44.4537 292.721 44.4537C285.389 44.4537 283.388 47.2972 279.595 52.9978C276.237 57.979 275.13 65.1938 275.13 72.1277C275.13 78.8971 275.754 84.6594 278.91 89.4487C282.515 94.9301 287.296 96.7184 293.641 96.7184C298.301 96.7184 298.113 96.6293 301.363 95.0055C301.363 96.6636 301.222 94.841 301.222 97.9654C301.206 98.6098 301.317 99.2508 301.548 99.8509C301.778 100.451 302.124 100.998 302.565 101.46C303.001 101.912 303.525 102.268 304.103 102.504C304.681 102.74 305.3 102.851 305.922 102.83C307.265 102.83 307.614 102.686 308.487 101.754C309.36 100.823 308.917 95.6495 308.917 95.6495C310.961 95.6849 312.993 95.9913 314.96 96.5608C321.332 98.4587 325.3 95.7728 329.194 90.8602C332.86 86.3312 333.196 83.5905 333.196 76.6224ZM301.638 63.3164C301.269 68.4552 300.584 77.979 300.631 84.0428C300.215 84.2415 299.496 90.2093 294.145 89.3323C290.68 88.7567 286.49 88.3662 284.671 84.6526C283.2 81.7269 282.818 77.1157 282.818 73.1965C282.818 69.1266 284.295 61.2472 285.953 58.0886C287.968 54.1831 289.028 52.525 292.701 52.525C293.019 52.5384 293.334 52.5866 293.641 52.6689C298.422 53.82 302.229 55.3411 301.638 63.3164V63.3164ZM325.938 78.7944C325.938 83.0287 324.911 84.5155 323.057 87.1534C320.949 90.1476 312.643 90.271 308.91 86.4683C308.91 78.3353 310.253 65.2623 309.816 57.8693C311.032 54.7381 312.851 53.9844 314.611 53.0046C316.967 51.6754 320.103 52.477 321.674 53.6281C326.314 56.9992 325.938 66.9547 325.938 78.7944Z" fill="#636F7B"/>
<path fill-rule="evenodd" clip-rule="evenodd" d="M345.772 96.04C357.368 100.836 367.796 95.9647 370.206 92.7718C372.462 89.7639 368.917 89.5515 367.715 86.0092C366.513 82.4669 370.905 61.5692 370.77 58.4586C370.562 53.6624 369.427 49.1677 368.031 47.1053C366.496 44.806 364.235 43.1132 361.625 42.3091C356.871 41.1101 351.842 43.4054 349.815 46.1255C347.787 48.8456 345.551 54.4092 345.719 58.4586C345.806 60.3291 348.519 61.994 350.996 59.7672C353.682 57.3486 352.171 51.4082 356.838 49.7843C358.469 49.2156 359.685 49.5171 361.887 52.6209C363.901 55.5055 364.942 62.5421 363.478 65.4062C360.417 71.3671 353.669 67.6878 349.378 68.599C344.906 69.5446 341.113 74.7655 339.978 80.8841C338.709 87.9756 341.878 94.4231 345.772 96.04ZM347.35 81.6035C348.143 78.4175 350.708 74.9985 354.139 74.5463C356.563 74.5943 359.651 74.005 360.618 76.7457C361.243 80.706 358.852 84.1181 359.947 88.0784C359.772 89.4487 358.758 90.3189 357.603 90.9903C355.059 92.0798 351.614 92.299 349.405 90.3052C348.477 89.0866 347.814 87.6804 347.46 86.1801C347.105 84.6798 347.068 83.1197 347.35 81.6035V81.6035Z" fill="#636F7B"/>
<path fill-rule="evenodd" clip-rule="evenodd" d="M448.685 91.0863C451.324 87.126 451.545 77.794 445.858 78.3764C441.111 78.856 443.367 83.8029 441.749 87.0575C441.126 88.2263 440.149 89.1581 438.964 89.7138C437.78 90.2695 436.451 90.4193 435.176 90.1408C433.295 89.6063 424.956 86.0298 424.943 79.9386C424.943 74.9437 422.438 71.1136 425.547 68.2565C427.776 66.201 432.127 68.1468 436.653 68.3181C440.01 68.4415 449.115 70.4559 451.002 65.8104C451.633 64.2551 451.062 62.9259 450.377 62.5353C446.684 60.4387 447.517 55.4438 446.201 52.0248C445.117 49.054 443.131 46.5142 440.534 44.7758C436.733 42.2817 429.253 42.7202 426.527 45.687C423.063 49.4417 421.303 52.477 419.591 57.9789C417.96 63.2136 416.382 71.141 417.06 78.719C418.121 90.6135 425.594 95.026 433.557 97.5337C439.674 99.4591 446.671 94.149 448.685 91.0863ZM432.946 50.7915C435.478 49.8529 438.318 51.7302 439.077 53.7583C439.835 55.7864 440.876 58.9587 439.379 59.9591C437.197 61.4185 432.94 59.5822 430.052 59.6439C429.092 59.6439 428.354 59.2808 428.286 58.3969C428.219 57.239 429.885 51.9426 432.96 50.7915H432.946Z" fill="#636F7B"/>
<path fill-rule="evenodd" clip-rule="evenodd" d="M411.574 60.6854C411.306 57.7118 411.97 54.8204 412.393 47.8179C412.816 40.8155 405.336 42.2612 405.148 45.3445C404.813 50.9355 404.43 54.4367 404.222 61.4117C404.222 61.6035 404.222 62.3504 404.222 63.3918C404.127 63.4959 404.066 63.6276 404.047 63.7687C402.778 70.0174 391.894 68.7978 387.59 68.3867C386.99 68.3218 386.383 68.3776 385.804 68.5511C385.804 68.0715 385.804 67.7015 385.804 67.4823C385.905 65.1595 385.703 59.781 386.328 57.8899C386.952 55.9988 387.187 46.0296 386.375 44.1249C385.562 42.2201 382.487 41.9803 380.614 42.8094C376.659 44.5565 378.103 49.5788 378.103 52.3263C378.103 59.5617 377.189 62.46 378.217 68.7704C379.244 75.0808 378.546 92.0661 378.888 95.444C379.21 98.5752 384.515 98.2875 384.931 94.9849C385.18 93.1281 385.408 83.3919 385.603 75.9715C386.172 76.1462 386.769 76.209 387.362 76.1565C395.963 75.4713 403.396 72.5251 404.269 76.0058C404.269 76.0948 404.383 76.1497 404.511 76.1839C404.506 76.2729 404.506 76.3621 404.511 76.4511C404.96 80.1716 402.355 92.7787 404.853 97.2049C405.692 98.6849 410.359 98.7876 411.071 96.6225C411.782 94.4574 411.675 61.8433 411.574 60.6854Z" fill="#636F7B"/>
</svg>
